<svg height="63.93" viewBox="0 0 60 60" width="63.93" xmlns="http://www.w3.org/2000/svg" fill="#5d78ff"><g id="045---Buffering-Stream"><path id="Shape" d="m30.024 11c.7838131.0087981 1.5387503-.2954569 2.0974187-.8453023.5586685-.54984535.8749018-1.29984386.8785813-2.0836977v-5.071c.0012982-.79078223-.3133487-1.54931881-.874-2.107-.8699317-.87527877-2.1871095-1.128548-3.3196071-.63829982s-1.8492513 1.62398833-1.8063929 2.85729982v4.959c.0034689.79233982.326284 1.54980832.8954268 2.1010713.5691428.551263 1.3365262.849744 2.1285732.8279287zm-1.024-2.929v-4.959c-.0217762-.54684579.3678422-1.02399956.908-1.112.2799656-.02251112.5566778.0724576.7638162.26214473.2071383.18968714.3260314.45699432.3281838.73785527v5.071c0 .55228473-.4477153.99999994-1 .99999994s-1-.44771521-1-.99999994z"/><path id="Shape" d="m29.976 49c-.7838131-.0087981-1.5387503.2954569-2.0974187.8453023-.5586685.5498453-.8749018 1.2998439-.8785813 2.0836977v5.071c.0017015.8839943.3924214 1.7224274 1.06823 2.2922797.6758086.5698522 1.5681883.8133487 2.43977.6657203 1.4639397-.2926777 2.5113384-1.5872154 2.492-3.08v-4.949c-.0034689-.7923398-.326284-1.5498083-.8954268-2.1010713s-1.3365262-.849744-2.1285732-.8279287zm1.024 7.878c.0217932.3572656-.148668.6990191-.4471725.8965254-.2985044.1975063-.6797023.2207593-1 .061-.3202976-.1597593-.5310343-.4782598-.5528275-.8355254v-5.071c0-.5522847.4477153-1 1-1s1 .4477153 1 1z"/><path id="Shape" d="m20.4 12.46c1.1142854.4601077 2.3954527.2136883 3.2595545-.6269419.8641017-.8406302 1.1457005-2.11452755.7164455-3.2410581l-1.932-4.686c-.4634086-1.12340659-1.5587676-1.85627835-2.774-1.856-1.0240381.02794124-1.9660094.56695016-2.5089505 1.43565592s-.6146696 1.95161648-.1910495 2.88434408l1.861 4.514c.2909019.7142125.8560895 1.2819216 1.569 1.576zm-1.274-8.233c.2463781-.16860337.5559292-.21636606.8416688-.12986665.2857396.0864994.5168289.29792532.6283312.57486665l1.935 4.683c.1620114.50008319-.0878951 1.0406507-.5738096 1.2411951-.4859144.2005444-1.0443362-.0064134-1.2821904-.4751951l-1.861-4.514c-.2177711-.47786251-.0901601-1.04229583.312-1.38z"/><path id="Shape" d="m41.173 49.116c-.6329183-1.5331425-2.3888575-2.2629183-3.922-1.63s-2.2629183 2.3888575-1.63 3.922l1.938 4.692c.6503327 1.5057344 2.3893639 2.2100714 3.9042179 1.5812744 1.5148541-.628797 2.2439156-2.3576086 1.6367821-3.8812744zm-.457 6.751c-.5111445.2104734-1.0964403-.0299796-1.312-.539l-1.935-4.683c-.1064649-.3139786-.0517277-.6602337.1463952-.9260619s.5142951-.4172348.8456048-.4049381c.3764042-.005942.7185348.2177892.864.565l1.93 4.682c.2112276.5094833-.0299235 1.0937938-.539 1.306z"/><path id="Shape" d="m13.028 8.784c-.6054254-.57410445-1.41792-.8779297-2.2514903-.84192519-.83357038.0360045-1.61684146.40875586-2.1705097 1.03292519-.99175171 1.2369245-.88091564 3.025022.256 4.13l3.512 3.513c.8738867.8353411 2.1621333 1.0681528 3.2731201.5915177 1.1109869-.4766352 1.8300169-1.5706079 1.8268799-2.7795177.0027848-.7715783-.303724-1.5120977-.851-2.056zm.76 6.42-3.512-3.513c-.2663415-.238832-.38503584-.6016135-.31137197-.951688s.32849467-.6342575.66849997-.74550001c.3400054-.11124248.7135305-.03264405.979872.20618801l3.587 3.588c.885.883-.545 2.281-1.412 1.412z"/><path id="Shape" d="m47.626 43.382c-1.1719483-1.1719482-3.0720517-1.1719481-4.2439999.0000001s-1.1719483 3.0720516-.0000001 4.2439999l3.511 3.511c.5972785.5971531 1.4064148.9339637 2.251.937 1.201876-.0143404 2.2779894-.7479104 2.7305909-1.8614019s.193448-2.3898082-.6575909-3.2385981zm2.042 6.535c-.4427154.264054-1.0096955.1832354-1.361-.194l-3.507-3.511c-.867-.869.536-2.294 1.416-1.416l3.584 3.591c.2105468.2088667.3175224.500414.2920305.7958889-.025492.2954749-.1808214.564392-.4240305.7341111z"/><path id="Shape" d="m22.738 47.562c-.7244641-.3157751-1.5450354-.3291566-2.2794106-.0371716s-1.3217355.8651553-1.6315894 1.5921716l-1.927 4.683c-.6331945 1.532314.095686 3.2878055 1.628 3.921s3.2878055-.095686 3.921-1.628l1.934-4.684c.5878684-1.5162863-.1425869-3.2245305-1.645-3.847zm-.208 3.083-1.93 4.676c-.1357609.3313638-.4379897.5651291-.7928397.6132386-.3548499.0481095-.7084109-.0967457-.9275-.38-.219089-.2832543-.2704212-.6618748-.1346603-.9932386l1.931-4.681c.2361578-.471008.7957324-.6800026 1.2828324-.4791231.4871001.2008796.7366809.743569.5721676 1.2441231z"/><path id="Shape" d="m8.071 33c1.65685425 0 3-1.3431458 3-3s-1.34314575-3-3-3h-5.071c-.79187146-.0063514-1.55247932.3086442-2.108.873-.87068052.8718225-1.12093088 2.1868133-.63134011 3.3175033.48959077 1.1306901 1.61980392 1.8479377 2.85134011 1.8094967zm-6.071-2.907c-.02403773-.2804188.07037485-.5581007.26035767-.7657519.18998281-.2076512.45819671-.32632.73964233-.3272481h5.071c.53546493.0342851.94684715.4877355.929 1.024.00889722.253355-.08459033.4996218-.25937395.6832481-.17478361.1836262-.41614053.2891444-.66962605.2927519h-4.959c-.54667232.0222991-1.02396366-.3670023-1.112-.907z"/><path id="Shape" d="m57 27h-5.071c-.7885393-.0030261-1.5438795.3171804-2.09.886-.8343349.8596-1.0806255 2.1316005-.6274397 3.2404961.4531857 1.1088956 1.5198695 1.8443071 2.7174397 1.8735039h4.95c1.0717968.0216146 2.0737091-.5302095 2.6283263-1.4476054.5546172-.917396.5776796-2.0609896.0605-3.0000001s-1.4960295-1.53078-2.5678263-1.5523945zm.985 3.176c-.1293162.5003813-.5895378.8432589-1.106.824h-4.95c-.5522847 0-1-.4477153-1-1s.4477153-1 1-1h5.071c.2961172-.0001806.5770871.1308856.7672257.3578938.1901387.2270082.269891.5266113.2177743.8181062z"/><path id="Shape" d="m12.46 39.6c.4579473-1.1144456.2106236-2.3944079-.6295392-3.2580231-.8401627-.8636152-2.11283258-1.1460759-3.2394608-.7189769l-4.684 1.934c-1.33556207.5397267-2.09179218 1.9595205-1.7944393 3.3689928.29735287 1.4094723 1.56267011 2.4027853 3.0024393 2.3570072.859 0 .864-.086 5.768-2.109.7152328-.292321 1.2833176-.8593252 1.577-1.574zm-1.848-.764c-.189.456-.02.281-5 2.351-.31714335.1675839-.69726919.1646021-1.01174447-.0079366-.31447529-.1725386-.5212136-.491543-.55025553-.8490634.00419294-.4050637.24860522-.7689315.622-.926l4.682-1.934c.37911406-.1214825.7942722-.011996 1.0641723.2806461s.3455168.7152834.1938277 1.0833539z"/><path id="Shape" d="m2.6 17.962c-.52563686.7419526-.68363601 1.6833427-.42903049 2.5562481.25460553.8729054.89393388 1.5817342 1.73603049 1.9247519 4.354 1.8 4.921 2.155 5.781 2.155 1.2196049-.0044906 2.313199-.7521762 2.76-1.887.3116613-.7224054.3215197-1.5394399.0273797-2.269155-.29414-.729715-.8678541-1.311518-1.5933797-1.615845l-4.509-1.86c-1.33729605-.5720077-2.89226754-.1615249-3.773.996zm8.011 3.2c.1529302.3680074.0779972.791345-.1919619 1.0844988-.2699592.2931537-.6857003.4026483-1.0650381.2805012l-4.681-1.927c-.27692008-.1109121-.48857641-.3414571-.57547022-.6268265-.08689382-.2853694-.03964283-.5947506.12847022-.8411735.33910464-.4033363.90540634-.5313164 1.385-.313 4.856 2.004 4.806 1.881 5.001 2.347z"/><path id="Shape" d="m56.092 37.557-4.684-1.937c-.9921265-.4092477-2.1272203-.258115-2.9777025.3964679-.8504823.6545829-1.2871444 1.7131693-1.1455 2.777.1416443 1.0638307.840076 1.9712844 1.8322025 2.3805321 5.056 2.085 5.039 2.159 5.828 2.159 1.4351768.0045799 2.6725752-1.0079568 2.9521161-2.4156536.2795409-1.4076969-.4770851-2.8162075-1.8051161-3.3603464zm-.225 3.158c-.2118166.5094668-.796241.7511124-1.306.54-5.061-2.1-4.977-1.95-5.172-2.421-.122634-.3125766-.0886904-.6649162.0913603-.9483328.1800506-.2834167.484576-.4638594.8196397-.4856672.259 0-.034-.11 5.023 2 .2476361.1008834.4445538.2967419.5467714.5438303.1022175.2470885.1012194.5248223-.0027714.7711697z"/><path id="Shape" d="m16.58 43.446c-.5439669-.5757687-1.2974972-.9073189-2.0894975-.9193702-.7920002-.0120514-1.5552693.2964187-2.1165025.8553702l-3.591 3.591c-.743827.7724082-1.01907661 1.8829698-.72206497 2.913347.29701164 1.0303771 1.12116141 1.8240311 2.16200007 2.082 1.0408386.2579689 2.140238-.0589388 2.8840649-.831347l3.511-3.511c.5539453-.5568992.8617314-1.3124857.8545909-2.0979417-.0071405-.7854561-.3286125-1.535322-.8925909-2.0820583zm-1.111 2.125c0 .5.1.273-3.776 4.152-.2601625.3144052-.6838373.4415722-1.0741376.3224048-.3903003-.1191673-.67068754-.4612999-.7108624-.8674048-.02479805-.293353.08092825-.5827284.289-.791l3.591-3.587c.3018178-.2579243.7259583-.3170706 1.0868244-.1515574.360866.1655132.5927471.5255475.5941756.9225574z"/><path id="Shape" d="m40.391 27.343-14.049-8.024c-.9296325-.4649722-2.0337085-.4156008-2.9181289.1304911s-1.423143 1.5110786-1.4238711 2.5505089v16c.00036 1.0494205.549052 2.0223687 1.4468958 2.5656551.8978437.5432865 2.0143074.5779263 2.9441042.0913449l13.951-7.97c1.0088348-.503268 1.6503437-1.5296469 1.6606806-2.6569976s-.6122437-2.1653203-1.6116806-2.6870024zm-.991 3.578-13.953 7.971c-.3095844.1547012-.6771505.1383312-.9717569-.0432783-.2946065-.1816095-.4743667-.5026376-.4752431-.8487217v-16c.0043823-.5584839.4575013-1.0093729 1.016-1.011.325 0-.668-.51 14.431 8.113.3520085.1717003.5713819.5330885.5612657.9246094-.0101163.3915209-.2478599.7410979-.6082657.8943906z"/><path id="Shape" d="m38.418 10.675c.404793.0005065.7699645-.2430727.925-.617l1.913-4.62c.1924291-.50560795-.0521264-1.07257291-.5519394-1.27958807-.4998131-.20701516-1.0736337.02099057-1.2950606.51458807l-1.914 4.619c-.1278879.30844954-.0933838.66037889.0919756.9381168.1853594.2777379.4971137.4446334.8310244.4448832z"/><path id="Shape" d="m48.385 10.2-3.536 3.535c-.2599566.2510745-.3642126.6228779-.2726972.9725073.0915155.3496295.3645604.6226744.7141899.7141899.3496294.0915154.7214328-.0127406.9725073-.2726972l3.537-3.534c.3907414-.3907415.3907414-1.0242585 0-1.415-.3907415-.39074142-1.0242585-.39074143-1.415 0z"/><path id="Shape" d="m49.4 21.964c.1015282.2451011.2962909.4398132.5414184.5412776s.5205277.1013645.7655816-.0002776l4.619-1.913c.5103111-.2112489.7527489-.7961889.5415-1.3065s-.7961889-.7527489-1.3065-.5415l-4.62 1.913c-.2451011.1015282-.4398132.2962909-.5412776.5414184s-.1013645.5205277.0002776.7655816z"/></g></svg>